<svg xmlns="http://www.w3.org/2000/svg" viewBox="0 0 512.003 512.003"><path d="M488.614 257.983c0 82.579-31.551 149.729-103.183 187.292-40.809 21.4-86.507 51.945-136.054 51.945-82.339 0-151.567-32.514-186.51-104.926C42.746 350.597 10.14 307.77 10.14 257.983c0-56.787 28.374-112.924 65.831-149.975 48.346-47.822 98.066-89.263 173.406-89.263 59.444 0 108.884 28.413 155.666 57.565 57.917 36.092 83.571 108.99 83.571 181.673z" fill="#fff0c0"/><path d="M249.376 497.22c49.548 0 95.245-30.545 136.054-51.945 3.214-1.685 6.343-3.432 9.396-5.236-242.838 75.031-298.8-291.63-230.29-401.121-32.967 16.619-60.991 41.814-88.566 69.089-37.457 37.051-65.831 93.188-65.831 149.975 0 49.788 32.606 92.615 52.728 134.311 34.942 72.413 104.17 104.927 186.509 104.927z" opacity=".2" fill="#c97b00"/><g fill="#ddaf89"><path d="M377.715 208.051c-3.888 0-7.176-2.999-7.471-6.939-1.803-24.018 9.268-52.776 30.373-78.904 20.401-25.255 45.28-41.8 66.551-44.258 4.12-.477 7.836 2.474 8.311 6.589.476 4.115-2.475 7.836-6.589 8.312-17.196 1.987-38.886 16.848-56.604 38.783-18.457 22.849-28.582 48.402-27.085 68.355.311 4.131-2.787 7.73-6.917 8.04-.192.015-.381.022-.569.022z"/><path d="M403.839 137.743c-3.36.001-6.376-2.269-7.246-5.597-2.074-4.339-19.486-22.486-38.667-28.484-3.953-1.236-6.156-5.443-4.92-9.396 1.236-3.952 5.441-6.155 9.397-4.92 22.554 7.053 46.898 29.756 48.804 39.45.799 4.064-1.849 8.007-5.913 8.806-.49.095-.976.141-1.455.141zm-7.186-5.463h.01-.01zm-.166-.591c.001.002.001.004.001.006 0-.003 0-.004-.001-.006z"/></g><g fill="#a28577"><path d="M196.234 327.151c-1.956 0-3.91-.761-5.381-2.274-11.234-11.566-29.453-55.847-17.389-85.457 4.753-11.668 6.631-34.246 4.784-57.52-1.903-23.979-7.38-43.646-14.292-51.327-2.771-3.079-2.521-7.821.557-10.592s7.82-2.523 10.592.557c13.186 14.65 17.048 46.963 18.097 60.176 2.049 25.82-.191 50.484-5.847 64.366-9.354 22.959 6.792 61.659 14.258 69.346 2.886 2.972 2.816 7.72-.154 10.605-1.457 1.416-3.342 2.12-5.225 2.12z"/><path d="M180.406 249.752c-3.291 0-6.31-2.183-7.227-5.509-9.678-35.11-33.404-45.322-49.104-52.079-3.328-1.433-6.203-2.67-8.618-4.012-3.621-2.011-4.925-6.577-2.913-10.198 2.011-3.62 6.574-4.928 10.198-2.913 1.754.974 4.307 2.073 7.263 3.345 16.092 6.926 46.044 19.816 57.636 61.871 1.101 3.993-1.244 8.123-5.237 9.224-.668.183-1.339.271-1.998.271zM244.705 160.59h-.133c-4.142-.008-7.493-3.372-7.485-7.515.008-4.137 3.364-7.485 7.5-7.485.036-.003.078 0 .116 0 15.823 0 29.195-7.179 43.354-14.778 13.985-7.508 28.446-15.271 45.812-16.093 4.188-.2 7.65 3 7.847 7.136.196 4.138-2.999 7.651-7.136 7.847-13.974.662-26.338 7.3-39.429 14.326-15.17 8.142-30.855 16.562-50.446 16.562z"/><path d="M299.491 140.105c-13.735 0-26.724-5.953-37.652-17.28-17.116-17.74-25.317-44.063-24.734-52.614.281-4.132 3.872-7.24 7.993-6.972 4.128.281 7.247 3.853 6.973 7.981-.145 3.921 6.287 26.828 21.147 41.787 8.279 8.335 17.475 12.399 27.332 12.081 4.1-.118 7.605 3.113 7.738 7.254.134 4.14-3.114 7.605-7.254 7.738-.515.016-1.029.025-1.543.025zM108.665 151.846c-1.295 0-2.606-.335-3.802-1.04-24.353-14.357-75.479-12.451-93.102-.288-3.407 2.354-8.079 1.497-10.433-1.913-2.352-3.409-1.496-8.08 1.913-10.433 22.07-15.231 79.01-18.108 109.238-.288 3.568 2.104 4.756 6.701 2.652 10.27-1.397 2.372-3.899 3.692-6.466 3.692z"/></g><g fill="#ddaf89"><path d="M196.237 104.006c-.676 0-1.362-.092-2.045-.285-3.986-1.128-6.304-5.272-5.176-9.258 2.585-9.138.689-17.746-5.795-26.318-14.269-18.865-45.22-29.665-51.426-29.665-4.142 0-7.5-3.357-7.5-7.5s3.357-7.5 7.5-7.5c10.578 0 45.891 12.48 63.389 35.616 9.249 12.228 12.107 25.869 8.266 39.449-.935 3.304-3.942 5.461-7.213 5.461z"/><path d="M195.727 83.087c-.895 0-1.807-.161-2.692-.503-3.866-1.488-5.793-5.828-4.305-9.693 1.033-2.685 3.332-5.469 8.895-12.065 9.151-10.851 30.582-36.263 25.266-47.794-1.734-3.762-.092-8.217 3.67-9.951 3.765-1.733 8.218-.09 9.951 3.67 9.311 20.192-13.682 47.456-27.42 63.746-2.564 3.041-5.743 6.811-6.471 8.049-1.21 2.821-3.972 4.541-6.894 4.541zm7.001-4.808c-.02.051-.039.102-.06.152.023-.053.043-.105.06-.152z"/></g><path d="M305.807 81c-2.016 0-4.024-.808-5.503-2.401-2.815-3.038-2.635-7.784.402-10.6l1.883-1.748c18.5-17.199 46.453-43.193 80.873-30.553 3.889 1.428 5.883 5.737 4.455 9.625-1.427 3.888-5.739 5.883-9.625 4.455-25.774-9.465-47.796 11.009-65.489 27.458l-1.9 1.765c-1.442 1.338-3.271 1.999-5.096 1.999z" fill="#a28577"/><g fill="#ddaf89"><path d="M7.507 342.985c-.091 0-.183-.002-.274-.005-4.14-.149-7.375-3.625-7.226-7.765 2.98-82.834 36.439-103.152 71.863-124.663 2.702-1.641 5.432-3.299 8.178-5.002 3.521-2.183 8.144-1.1 10.327 2.419 2.184 3.521 1.101 8.144-2.419 10.327-2.788 1.73-5.558 3.411-8.3 5.077-34.622 21.025-61.97 37.631-64.659 112.381-.146 4.049-3.473 7.231-7.49 7.231z"/><path d="M71.862 326.797c-4.143 0-7.5-3.357-7.5-7.5 0-17.323-22.546-40.278-33.381-51.31-2.311-2.354-4.138-4.212-5.469-5.706-1.446-1.62-5.845-6.553-2.168-11.811 2.372-3.395 7.051-4.223 10.443-1.85 1.266.885 2.175 2.09 2.694 3.429 1.028 1.18 3.224 3.415 5.2 5.428 13.168 13.407 37.68 38.364 37.68 61.821.001 4.142-3.356 7.499-7.499 7.499zm-36.218-67.743c-.002.003-.004.006-.007.009.003-.003.005-.006.007-.009zm.006-.009c-.001.002-.002.003-.003.005.001-.002.002-.003.003-.005zm.006-.009c-.001.001-.001.003-.002.004.001-.001.001-.003.002-.004z"/></g><g fill="#a28577"><path d="M63.943 452.991c-2.657 0-5.232-1.415-6.594-3.912-7.461-13.678.307-61.524 21.088-84.517 2.778-3.072 7.521-3.311 10.594-.535 3.072 2.778 3.313 7.521.535 10.594-7.589 8.396-13.968 22.491-17.501 38.672-3.431 15.709-2.699 26.384-1.545 28.608 1.983 3.637.642 8.189-2.994 10.173-1.14.622-2.37.917-3.583.917zM213.452 410.131c-1.075 0-2.167-.232-3.203-.723-21.908-10.369-33.84-24.806-44.367-37.544-14.275-17.273-25.552-30.918-57.737-33.186-4.132-.291-7.245-3.877-6.954-8.009s3.879-7.245 8.009-6.954c38.598 2.72 53.67 20.957 68.245 38.593 9.996 12.095 20.331 24.602 39.221 33.541 3.744 1.772 5.343 6.244 3.571 9.987-1.282 2.709-3.977 4.295-6.785 4.295z"/><path d="M243.706 377.092c-2.153 0-4.29-.922-5.773-2.708-8.782-10.575-28.819-5.324-44.92-1.106-7.367 1.931-13.73 3.598-18.972 3.809-4.146.188-7.629-3.055-7.795-7.193-.166-4.139 3.055-7.629 7.193-7.795 3.615-.145 9.52-1.692 15.771-3.33 19.15-5.019 45.377-11.889 60.261 6.032 2.646 3.187 2.209 7.915-.978 10.562-1.4 1.161-3.099 1.729-4.787 1.729z"/></g><g fill="#ddaf89"><path d="M149.748 509.612c-1.268 0-2.551-.321-3.729-.997-3.592-2.063-4.831-6.647-2.769-10.239 12.709-22.128 13.781-45.601 3.189-69.767-8.64-19.71-22.269-32.889-24.594-34.667-3.29-2.517-3.918-7.224-1.402-10.514s7.223-3.917 10.514-1.402c5.615 4.294 20.146 19.858 29.221 40.562 12.431 28.359 11.075 57.149-3.92 83.259-1.386 2.414-3.913 3.765-6.51 3.765z"/><path d="M163.473 457.502c-2.107 0-4.04-.288-5.846-.969-3.876-1.463-5.832-5.79-4.37-9.665 1.449-3.84 5.711-5.791 9.556-4.41 1.923.369 8.319-1.183 13.006-2.318 12.432-3.012 29.459-7.138 45.029-1.737 3.914 1.357 5.986 5.63 4.629 9.543-1.357 3.914-5.626 5.986-9.543 4.629-11.409-3.956-25.366-.573-36.582 2.144-6.338 1.535-11.488 2.783-15.879 2.783zm-.552-15.005c0 .001.001.001.002.001-.001 0-.002 0-.002-.001z"/></g><g fill="#a28577"><path d="M257.824 446.416c-2.484 0-4.915-1.233-6.343-3.488-2.217-3.499-1.177-8.133 2.323-10.349 8.864-5.615 20.829-7.364 34.682-9.39 15.581-2.278 34.971-5.114 55.649-14.435 3.774-1.699 8.217-.021 9.92 3.756 1.702 3.776.021 8.218-3.756 9.92-22.594 10.183-43.137 13.187-59.643 15.601-12.66 1.852-22.659 3.314-28.827 7.22-1.243.789-2.633 1.165-4.005 1.165z"/><path d="M381.576 462.939c-12.062 0-26.85-4.337-44.139-12.963-16.096-8.031-28.455-16.858-28.973-17.23-3.366-2.415-4.137-7.1-1.722-10.466 2.415-3.367 7.103-4.136 10.466-1.722 12.807 9.176 50.501 31.847 70.913 26.638 4.01-1.021 8.098 1.4 9.12 5.415 1.023 4.014-1.401 8.097-5.415 9.12-3.158.805-6.579 1.208-10.25 1.208z"/></g><g fill="#ddaf89"><path d="M302.51 387.943c-1.433 0-2.88-.409-4.159-1.265-3.444-2.301-4.371-6.959-2.07-10.402 22.631-33.873 73.056-43.186 119.397-47.827 4.112-.415 7.796 2.594 8.21 6.716.412 4.121-2.594 7.797-6.716 8.21-42.857 4.293-89.253 12.549-108.418 41.233-1.447 2.165-3.823 3.335-6.244 3.335z"/><path d="M428.622 400.226c-7.239 0-14.34-1.12-21.333-3.354-24.104-7.696-42.53-27.358-57.376-45.577-2.616-3.211-2.134-7.935 1.077-10.552 3.212-2.617 7.935-2.134 10.552 1.077 13.452 16.509 29.948 34.262 50.31 40.763 20.926 6.682 43.83.462 70.026-19.011 3.324-2.471 8.021-1.779 10.494 1.545 2.471 3.324 1.779 8.022-1.545 10.494-22.145 16.461-42.677 24.615-62.205 24.615z"/></g><g fill="#a28577"><path d="M449.88 293.608c-.563 0-1.133-.063-1.704-.196-4.034-.938-6.546-4.968-5.608-9.003 3.901-16.794 14.312-30.659 24.378-44.067 11.664-15.535 22.681-30.209 20.491-46.48-.553-4.104 2.327-7.881 6.433-8.433 4.1-.556 7.88 2.327 8.433 6.433 3.01 22.362-10.396 40.218-23.36 57.486-9.133 12.165-18.577 24.744-21.763 38.456-.806 3.464-3.891 5.804-7.3 5.804z"/><path d="M465.831 261.982c-3.669 0-6.777-2.66-7.387-6.229-.878-1.79-4.609-6.461-7.634-10.246-13.727-17.181-36.702-45.936-26.46-73.003 1.465-3.875 5.795-5.829 9.669-4.36 3.874 1.466 5.826 5.795 4.36 9.669-7.217 19.073 12.418 43.648 24.149 58.331 7.028 8.797 10.557 13.213 10.798 17.958.211 4.137-2.973 7.66-7.109 7.871-.129.006-.258.009-.386.009zm-7.485-7.12v0zM452.819 340.449c-1.398 0-2.811-.39-4.071-1.205-3.477-2.25-4.469-6.9-2.219-10.378 6.476-10.01 46.979-35.293 54.163-39.529 3.568-2.103 8.166-.916 10.271 2.651 2.104 3.568.917 8.166-2.651 10.271-21.116 12.451-46.424 30.725-49.197 34.769-1.435 2.216-3.84 3.421-6.296 3.421z"/></g><path d="M128.008 109.163c-.367 0-.737-.026-1.111-.082-6.696-.994-15.698-5.248-22.934-10.837-9.922-7.664-15.689-16.923-16.676-26.775-.413-4.122 2.594-7.798 6.715-8.211 4.123-.41 7.798 2.593 8.211 6.715 1.283 12.809 19.304 23.146 26.887 24.271 4.097.608 6.926 4.423 6.317 8.521-.553 3.722-3.755 6.398-7.409 6.398z" fill="#ddaf89"/><path d="M101.568 285.744c-.928 0-1.87-.173-2.784-.539-3.846-1.538-5.716-5.903-4.177-9.749 2.777-6.942 20.958-24.781 31.229-27.872 3.964-1.193 8.148 1.054 9.343 5.02 1.193 3.967-1.054 8.149-5.02 9.343-5.351 1.61-19.559 15.103-21.667 19.184-1.197 2.871-3.984 4.613-6.924 4.613zm6.965-4.716c-.006.016-.012.03-.019.046.007-.015.013-.031.019-.046z" fill="#a28577"/><g fill="#ddaf89"><path d="M56.091 193.682c-1.97 0-3.937-.771-5.409-2.304-2.87-2.987-2.774-7.735.212-10.604 8.407-8.077 22.51-10.699 31.508-9.068 4.076.739 6.781 4.643 6.042 8.718-.739 4.076-4.65 6.775-8.718 6.042-5.213-.945-14.069.928-18.439 5.125-1.454 1.396-3.326 2.091-5.196 2.091zM277.24 334.697c-1.766 0-3.538-.62-4.965-1.881-17.699-15.65-23.274-32.207-27.753-45.51-4.682-13.902-8.064-23.947-22.589-30.923-3.733-1.793-5.307-6.273-3.514-10.008 1.793-3.733 6.273-5.307 10.008-3.514 20.229 9.714 25.354 24.937 30.31 39.658 4.314 12.813 8.774 26.063 23.473 39.058 3.103 2.744 3.395 7.484.651 10.587-1.481 1.678-3.547 2.533-5.621 2.533z"/><path d="M264.524 293.341c-7.04 0-12.982-1.017-16.806-3.029-3.665-1.929-5.073-6.465-3.144-10.13 1.929-3.664 6.464-5.073 10.13-3.144 2.386 1.256 12.591 2.372 26.435-.595 4.047-.867 8.036 1.712 8.905 5.763.867 4.051-1.713 8.037-5.763 8.905-6.96 1.492-13.758 2.23-19.757 2.23zM411.229 272.174c-.354 0-.711-.025-1.07-.076-4.101-.586-6.95-4.385-6.364-8.485.879-6.152-7.598-12.724-10.259-13.973-3.427-.595-6.084-3.525-6.205-7.139-.138-4.141 3.105-7.608 7.245-7.747.079-.002.158-.004.237-.004 5.393 0 12.738 5.999 16.411 10.094 5.871 6.546 8.438 13.77 7.42 20.89-.535 3.741-3.743 6.44-7.415 6.44zm-16.151-22.428h-.007.007zm-1.823-.226z"/><path d="M295.73 304.296c-1.919 0-3.839-.732-5.303-2.196l-26.038-26.037c-2.93-2.929-2.93-7.678-.001-10.606 2.93-2.93 7.679-2.929 10.606-.001l26.038 26.037c2.93 2.929 2.93 7.678.001 10.606-1.464 1.465-3.384 2.197-5.303 2.197z"/></g><g fill="#f2937e"><ellipse transform="rotate(-45 255.35031111 200.00920114)" cx="255.351" cy="200.005" rx="20.55" ry="25.805"/><ellipse transform="rotate(135 354.25481778 298.92448108)" cx="354.253" cy="298.924" rx="20.55" ry="25.805"/></g><g fill="#495059"><path d="M275.56 193.401c-1.919 0-3.839-.732-5.304-2.196-2.929-2.93-2.929-7.678 0-10.607l7.832-7.832c2.93-2.928 7.678-2.928 10.607 0 2.929 2.93 2.929 7.678 0 10.607l-7.832 7.832c-1.464 1.464-3.384 2.196-5.303 2.196zM302.75 251.517c-7.301-7.301-7.301-19.139 0-26.44l9.611-9.611c1.993-1.993 5.225-1.993 7.218 0l19.223 19.223c1.993 1.993 1.993 5.225 0 7.218l-9.611 9.611c-7.302 7.3-19.14 7.3-26.441-.001zM368.365 286.206c-1.919 0-3.839-.732-5.304-2.196-2.929-2.93-2.929-7.678 0-10.607l7.832-7.832c2.93-2.928 7.678-2.928 10.607 0 2.929 2.93 2.929 7.678 0 10.607l-7.832 7.832c-1.464 1.464-3.384 2.196-5.303 2.196z"/></g></svg>