<svg xmlns="http://www.w3.org/2000/svg" viewBox="0 0 350 134">
  <defs/>
  <g fill="none" fill-rule="evenodd">
    <path fill="#DA3332" d="M45.852 10.659h-6.723c-10.166 0-20.005 6.723-20.005 26.235 0 18.857 9.019 24.924 20.005 24.924h6.723V10.659zM35.358 72.313L15.353 117.24H.76l21.972-48.044C12.402 63.949 5.515 54.439 5.515 36.894 5.515 12.299 21.092.001 39.621.001h18.856v117.24H45.852V72.314H35.358z"/>
    <path fill="#000105" d="M303.78 75.92c0-25.908 10.003-42.469 29.352-42.469 7.378 0 11.641 1.968 15.249 4.263l-1.804 12.134c-3.443-2.952-8.362-5.739-13.609-5.739-9.183 0-15.741 10.33-15.741 31.155 0 20.66 4.918 32.466 15.249 32.466 6.23 0 10.986-2.459 13.937-5.083l2.951 9.51c-4.427 3.772-9.674 6.231-17.217 6.231-17.709 0-28.367-14.265-28.367-42.468zm-37.385.164v41.156h-12.79V34.598h12.79v38.206l19.84-38.206h12.955L278.693 73.46l23.448 43.78h-13.938l-21.808-41.156zm-60.177-7.707h21.152c0-14.102-2.296-24.432-9.674-24.432-7.871 0-10.658 9.674-11.478 24.432zm14.101 50.011c-17.052 0-27.547-13.609-27.547-39.025 0-26.563 7.379-45.912 24.924-45.912 13.774 0 22.792 10.33 22.792 38.37v7.05h-34.434c0 18.693 5.247 28.532 15.413 28.532 7.215 0 12.954-3.28 16.233-5.576l2.952 9.838c-5.247 4.1-12.134 6.723-20.333 6.723zm-54.438-73.459h-14.266v1.475c0 17.381-.82 42.797-7.706 60.342h21.972V44.929zm19.184 88.545h-11.478V117.24h-35.418v16.234h-11.478v-26.728h5.084c7.542-17.545 8.362-43.125 8.362-65.097v-7.051h38.37v72.148h6.558v26.728zm-65.752-98.876v82.642h-12.626V80.183H87.666v37.057H74.877V34.598h12.789v35.09h19.021v-35.09h12.626z"/>
  </g>
</svg>
